<svg xmlns="http://www.w3.org/2000/svg" xmlns:xlink="http://www.w3.org/1999/xlink" aria-hidden="true" role="img" class="iconify iconify--logos skills-icon p-1" width="1em" height="1em" preserveAspectRatio="xMidYMid meet" viewBox="0 0 24 24" data-icon="logos:github-actions-icon" style="background-color: white;"><path d="M0 12l12-10v6h12v8H12v6z" fill="#2088FF"></path><path d="M12 4v4h12v8H12v4L0 12z" fill="#2088FF"></path><path d="M8 11h2v-1H8v1zm4 0h2v-1h-2v1zm4 0h2v-1h-2v1zM8 13h2v-1H8v1zm4 0h2v-1h-2v1zm4 0h2v-1h-2v1zM8 15h2v-1H8v1zm4 0h2v-1h-2v1zm4 0h2v-1h-2v1zM8 17h2v-1H8v1zm4 0h2v-1h-2v1zm4 0h2v-1h-2v1z" fill="#fff"></path></svg>
