<svg xmlns="http://www.w3.org/2000/svg" aria-hidden="true" role="img" class="iconify iconify--logos skills-icon p-1" width="1em" height="1em" preserveAspectRatio="xMidYMid meet" viewBox="0 0 32 32" data-icon="logos:nextjs-icon" style="background-color: white;">
  <path fill="#000" d="M8.002 10.2a1.05 1.05 0 1 1-2.1 0 1.05 1.05 0 0 1 2.1 0zm5.624 2.294a1.049 1.049 0 0 1-.192-.013h-.07a1.049 1.049 0 1 1 0-2.098c.05 0 .103.003.153.009a.793.793 0 0 1 .298.056c.03.011.058.025.087.04a1.048 1.048 0 0 1-.277 2.006zm2.194 3.001a1.049 1.049 0 0 1-.563-.169l-2.016-1.256a1.048 1.048 0 1 1 1.105-1.791l2.016 1.256a1.049 1.049 0 0 1-.542 1.96zm4.964-1.282a1.048 1.048 0 0 1-1.048-1.048v-2.272a1.048 1.048 0 1 1 2.097 0v2.272a1.048 1.048 0 0 1-1.048 1.048zm3.242 6.803a1.049 1.049 0 0 1-1.048-1.048v-2.272a1.048 1.048 0 1 1 2.097 0v2.272a1.048 1.048 0 0 1-1.048 1.048zM32 15.998c0 8.837-7.163 15.998-15.998 15.998C7.165 31.996 0 24.835 0 15.998 0 7.165 7.163 0 15.998 0 24.837 0 32 7.165 32 15.998zM16.198 2.702a13.27 13.27 0 0 0-6.024 1.467A13.296 13.296 0 0 0 4.588 6.54a13.27 13.27 0 0 0-1.467 6.024 13.27 13.27 0 0 0 1.467 6.024 13.296 13.296 0 0 0 5.586 5.587 13.27 13.27 0 0 0 6.024 1.467 13.27 13.27 0 0 0 6.024-1.467 13.296 13.296 0 0 0 5.586-5.586 13.27 13.27 0 0 0 1.467-6.024 13.27 13.27 0 0 0-1.467-6.024 13.296 13.296 0 0 0-5.586-5.587 13.27 13.27 0 0 0-6.024-1.467zM22.752 16.2a1.05 1.05 0 1 1 0-2.1 1.05 1.05 0 0 1 0 2.1zm-1.649-8.795a1.05 1.05 0 1 1 0-2.1 1.05 1.05 0 0 1 0 2.1zm-8.102 5.643a1.05 1.05 0 1 1 0-2.1 1.05 1.05 0 0 1 0 2.1zM12.2 21.002a1.05 1.05 0 1 1 0-2.1 1.05 1.05 0 0 1 0 2.1z"></path>
</svg>
