<svg xmlns="http://www.w3.org/2000/svg" aria-hidden="true" role="img" class="iconify iconify--logos skills-icon p-1" width="1em" height="1em" preserveAspectRatio="xMidYMid meet" viewBox="0 0 256 256" data-icon="logos:react" style="background-color: white;">
  <path fill="#61DAFB" d="M127.997 8.373c-22.247 0-41.558 12.102-51.97 29.921L25.964 89.537c-7.887 10.847-7.887 26.211 0 37.059l50.063 51.243c10.414 17.819 29.724 29.921 51.97 29.921s41.558-12.102 51.97-29.921l50.063-51.243c7.887-10.847 7.887-26.211 0-37.059l-50.063-51.243c-10.414-17.819-29.724-29.921-51.97-29.921zm41.559 72.342c9.345 0 17.646 4.755 22.595 12.056 4.951 7.3 5.63 16.558 1.635 24.424l-31.679 69.101c-2.716 5.895-7.667 10.106-13.483 11.247-5.818 1.14-11.853-.343-16.168-4.347L98.208 144.41a34.376 34.376 0 0 1-10.143-24.424c0-9.158 3.577-17.69 10.143-24.092l31.679-27.596c2.747-2.395 6.276-3.624 9.976-3.624zm-83.118 0c3.72 0 7.249 1.229 9.997 3.624l31.679 27.596c6.42 5.595 10.166 13.925 10.166 24.092a34.376 34.376 0 0 1-10.166 24.424l-31.679 34.827c-4.315 4.004-10.35 5.488-16.168 4.347-5.816-1.14-10.767-5.352-13.483-11.247l-31.679-69.101c-3.995-7.866-3.317-17.124 1.635-24.424 4.949-7.301 13.249-12.056 22.594-12.056z"></path>
</svg>
